<svg width="33" height="32" viewBox="0 0 33 32" fill="none" xmlns="http://www.w3.org/2000/svg">
<path d="M1 11.5C1 8.45001 2.2116 5.52494 4.36827 3.36827C6.52494 1.2116 9.45001 0 12.5 0C15.55 0 18.4751 1.2116 20.6317 3.36827C22.7884 5.52494 24 8.45001 24 11.5C24 14.55 22.7884 17.4751 20.6317 19.6317C18.4751 21.7884 15.55 23 12.5 23C9.45001 23 6.52494 21.7884 4.36827 19.6317C2.2116 17.4751 1 14.55 1 11.5H1Z" fill="#23A6F0"/>
<path d="M26.1158 9.91667H29.125C29.3792 9.91667 29.6229 10.0176 29.8026 10.1974C29.9824 10.3771 30.0833 10.6208 30.0833 10.875V28.125C30.0833 28.3792 29.9824 28.6229 29.8026 28.8026C29.6229 28.9824 29.3792 29.0833 29.125 29.0833H11.875C11.6208 29.0833 11.3771 28.9824 11.1974 28.8026C11.0176 28.6229 10.9167 28.3792 10.9167 28.125V25.1158C10.2683 25.0226 9.62766 24.8816 9 24.6942V28.125C9 28.8875 9.3029 29.6188 9.84207 30.1579C10.3812 30.6971 11.1125 31 11.875 31H29.125C29.8875 31 30.6188 30.6971 31.1579 30.1579C31.6971 29.6188 32 28.8875 32 28.125V10.875C32 10.1125 31.6971 9.38123 31.1579 8.84207C30.6188 8.3029 29.8875 8 29.125 8H25.6942C25.8801 8.621 26.02 9.26117 26.1158 9.91667Z" fill="#23A6F0"/>
</svg>
