<svg width="20" height="20" viewBox="0 0 20 20" fill="none" xmlns="http://www.w3.org/2000/svg">
<path d="M19.1311 7.41927C19.0734 7.24946 18.9673 7.10025 18.8258 6.99006C18.6843 6.87987 18.5137 6.81353 18.3349 6.79922L13.1057 6.38371L10.8429 1.3747C10.7709 1.21337 10.6536 1.07634 10.5054 0.980156C10.3572 0.883971 10.1843 0.832739 10.0076 0.832642C9.83093 0.832545 9.65798 0.883587 9.50966 0.979609C9.36133 1.07563 9.24397 1.21253 9.17173 1.37378L6.90891 6.38371L1.67976 6.79922C1.50407 6.81314 1.3361 6.87738 1.19597 6.98425C1.05583 7.09113 0.949449 7.23612 0.889554 7.40187C0.829659 7.56762 0.818785 7.74712 0.858232 7.91889C0.89768 8.09066 0.985779 8.24743 1.11199 8.37044L4.9763 12.1375L3.60962 18.0555C3.56812 18.2347 3.58142 18.4221 3.64779 18.5936C3.71417 18.7651 3.83055 18.9127 3.98183 19.0172C4.13312 19.1217 4.31233 19.1783 4.4962 19.1797C4.68008 19.1811 4.86013 19.1272 5.01299 19.025L10.0073 15.6955L15.0017 19.025C15.1579 19.1288 15.3422 19.1822 15.5297 19.1781C15.7171 19.1739 15.8989 19.1125 16.0504 19.002C16.202 18.8916 16.316 18.7373 16.3773 18.5601C16.4386 18.3828 16.4441 18.1911 16.3931 18.0106L14.7155 12.1403L18.8761 8.39612C19.1485 8.15031 19.2485 7.7669 19.1311 7.41927Z" fill="#F3CD03"/>
</svg>
